<svg height="448pt" viewBox="0 0 448 448" width="448pt" xmlns="http://www.w3.org/2000/svg"><path d="m184 311.191406 107.3125-87.191406-107.3125-87.191406zm0 0"/><path d="m224 0c-123.710938 0-224 100.289062-224 224s100.289062 224 224 224 224-100.289062 224-224c-.140625-123.652344-100.347656-223.859375-224-224zm85.039062 230.207031-128 104c-2.394531 1.945313-5.691406 2.335938-8.476562 1.011719s-4.5625-4.132812-4.5625-7.21875v-208c0-3.085938 1.777344-5.894531 4.5625-7.21875s6.082031-.933594 8.476562 1.011719l128 104c1.871094 1.519531 2.953126 3.796875 2.953126 6.207031s-1.082032 4.6875-2.953126 6.207031zm0 0"/></svg>